HIERARCHY
ROOT Hips
{
	OFFSET -3.958830 18.904000 13.208200
	CHANNELS 6 Xposition Yposition Zposition Zrotation Yrotation Xrotation 
	JOINT LHipJoint
	{
		OFFSET 0.000000 0.000000 0.000000
		CHANNELS 3 Zrotation Yrotation Xrotation
		JOINT LeftUpLeg
		{
			OFFSET 1.800000 -1.400000 0.085000
			CHANNELS 3 Zrotation Yrotation Xrotation
			JOINT LeftLeg
			{
				OFFSET 2.215000 -6.000000 0.000000
				CHANNELS 3 Zrotation Yrotation Xrotation
				JOINT LeftFoot
				{
					OFFSET 2.500000 -6.900000 0.000000
					CHANNELS 3 Zrotation Yrotation Xrotation
					JOINT LeftToeBase
					{
						OFFSET 0.200000 -0.500000 1.950000
						CHANNELS 3 Zrotation Yrotation Xrotation
						End Site
						{
							OFFSET 0.000000 0.000000 0.000000
						}
					}
				}
			}
		}
	}
	JOINT RHipJoint
	{
		OFFSET 0.000000 0.000000 0.000000
		CHANNELS 3 Zrotation Yrotation Xrotation
		JOINT RightUpLeg
		{
			OFFSET -1.800000 -1.400000 0.085000
			CHANNELS 3 Zrotation Yrotation Xrotation
			JOINT RightLeg
			{
				OFFSET -2.215000 -6.000000 0.000000
				CHANNELS 3 Zrotation Yrotation Xrotation
				JOINT RightFoot
				{
					OFFSET -2.500000 -6.900000 0.000000
					CHANNELS 3 Zrotation Yrotation Xrotation
					JOINT RightToeBase
					{
						OFFSET -0.200000 -0.500000 1.950000
						CHANNELS 3 Zrotation Yrotation Xrotation
						End Site
						{
							OFFSET 0.000000 0.000000 0.000000
						}
					}
				}
			}
		}
	}
	JOINT LowerBack
	{
		OFFSET 0.000000 0.000000 0.000000
		CHANNELS 3 Zrotation Yrotation Xrotation
		JOINT Spine
		{
			OFFSET -0.087000 1.940000 -0.288900
			CHANNELS 3 Zrotation Yrotation Xrotation
			JOINT Spine1
			{
				OFFSET 0.000000 1.950000 0.060000
				CHANNELS 3 Zrotation Yrotation Xrotation
				JOINT Neck
				{
					OFFSET 0.000000 0.000000 0.000000
					CHANNELS 3 Zrotation Yrotation Xrotation
					JOINT Neck1
					{
						OFFSET 0.000000 1.600000 0.340000
						CHANNELS 3 Zrotation Yrotation Xrotation
						JOINT Head
						{
							OFFSET 0.000000 1.667000 -0.240000
							CHANNELS 3 Zrotation Yrotation Xrotation
							End Site
							{
								OFFSET 0.000000 0.000000 0.000000
							}
						}
					}
				}
				JOINT LeftShoulder
				{
					OFFSET 0.000000 0.000000 0.000000
					CHANNELS 3 Zrotation Yrotation Xrotation
					JOINT LeftArm
					{
						OFFSET 2.700000 1.550000 -0.730000
						CHANNELS 3 Zrotation Yrotation Xrotation
						JOINT LeftForeArm
						{
							OFFSET 5.450000 0.000000 0.000000
							CHANNELS 3 Zrotation Yrotation Xrotation
							JOINT LeftHand
							{
								OFFSET 3.450000 0.000000 0.000000
								CHANNELS 3 Zrotation Yrotation Xrotation
								JOINT LeftHandIndex1
								{
									OFFSET 0.750000 0.000000 0.000000
									CHANNELS 3 Zrotation Yrotation Xrotation
									End Site
									{
										OFFSET 0.000000 0.000000 0.000000
									}
								}
							}
						}
					}
				}
				JOINT RightShoulder
				{
					OFFSET 0.000000 0.000000 0.000000
					CHANNELS 3 Zrotation Yrotation Xrotation
					JOINT RightArm
					{
						OFFSET -2.700000 1.550000 -0.730000
						CHANNELS 3 Zrotation Yrotation Xrotation
						JOINT RightForeArm
						{
							OFFSET -5.450000 0.000000 0.000000
							CHANNELS 3 Zrotation Yrotation Xrotation
							JOINT RightHand
							{
								OFFSET -3.450000 0.000000 0.000000
								CHANNELS 3 Zrotation Yrotation Xrotation
								JOINT RightHandIndex1
								{
									OFFSET -0.750000 0.000000 0.000000
									CHANNELS 3 Zrotation Yrotation Xrotation
									End Site
									{
										OFFSET 0.000000 0.000000 0.000000
									}
								}
							}
						}
					}
				}
			}
		}
	}
}
MOTION
Frames: 9
Frame Time: 0.016667
0.634860 18.694020 -7.615650 1.122238 4.456428 -7.571088 -15.152893 13.835881 3.086895 -0.316195 -4.015389 -22.155526 17.180062 -0.010803 40.594629 0.233624 6.210500 2.246926 0.058850 -0.096260 0.085250 18.174247 -11.546659 2.522997 -1.206001 2.165348 -17.803479 -27.617978 3.832402 23.712494 -0.453880 -4.256229 2.739575 -0.081830 0.124230 0.242930 -3.557844 -1.567806 -7.554194 7.228104 0.753445 20.808964 -2.421047 2.426511 15.857135 2.779594 1.077585 -12.427304 -3.148671 0.567972 63.739486 -2.579080 -0.489290 5.780950 -5.913347 -2.020224 4.607049 -9.275989 16.716144 -3.977928 -35.507813 -12.380475 0.614266 -3.559343 3.247007 0.291130 0.059860 0.123930 0.042710 0.992341 2.305417 7.339189 10.547735 -18.607454 -5.427825 37.553477 33.115308 7.866367 2.250826 -1.762661 -0.039700 0.044890 0.095520 -0.025050 
0.626380 18.677400 -7.562090 1.104990 4.050199 -7.643299 -15.136177 13.851858 2.976128 -0.581408 -3.646210 -21.733638 19.827775 -1.175421 37.133913 0.174194 5.730857 2.407320 0.075410 -0.073200 0.090120 18.204765 -11.541074 2.548411 -1.060336 2.280015 -17.816935 -27.775764 3.858252 22.871949 -0.455971 -4.167649 2.770760 -0.077030 0.109900 0.232970 -3.616375 -1.538645 -7.438149 7.386148 0.632130 18.758676 -2.456426 2.100287 16.903190 2.757384 0.361649 -13.100203 -4.916859 2.315322 67.530499 -2.149850 0.039880 6.812980 -3.207076 -1.594241 5.235345 -8.437265 18.498406 -3.940441 -38.590179 -13.266717 1.091122 -3.480326 3.301790 0.305470 0.042020 0.142090 0.050920 -1.528929 2.351872 7.520812 6.666151 -18.288867 -3.938626 44.700126 33.178190 9.924075 2.230106 -1.873874 -0.032670 0.047750 0.083840 -0.021870 
0.618740 18.678380 -7.517690 0.855410 4.110300 -8.017433 -15.121090 13.919543 2.922155 -0.821484 -3.373301 -20.823016 22.000989 -2.013344 34.405414 0.166817 5.421218 2.516571 0.078700 -0.073810 0.098460 18.211522 -11.567987 2.544331 -0.986566 2.304476 -17.771428 -26.784110 3.748372 23.911759 -0.458240 -4.135923 2.784056 -0.094480 0.078970 0.214180 -3.651617 -1.575259 -7.379842 7.692592 0.284788 18.072660 -2.459075 1.710831 17.239826 2.762594 -0.368101 -14.054621 -6.917137 3.445744 70.276406 -2.198540 -0.172600 7.922870 -1.747087 -2.070229 6.060619 -8.224180 21.000580 -4.269144 -40.514103 -15.376894 1.951920 -3.395022 3.338906 0.327040 0.007180 0.164770 0.051650 -2.886648 3.430875 8.074445 4.674251 -18.311175 -3.277799 47.479112 32.855860 10.692788 2.245751 -1.893312 -0.023840 0.045370 0.070380 -0.020970 
0.603220 18.678750 -7.495260 1.000305 3.846269 -8.186998 -15.109184 13.971313 2.907234 -0.964224 -3.173725 -20.345775 22.214835 -2.020468 33.293445 0.149349 5.269226 2.570876 0.061660 -0.094330 0.080540 18.209124 -11.593871 2.533234 -1.371293 2.429939 -18.322484 -25.414304 3.527734 25.106671 -0.434061 -4.080196 2.805568 -0.111510 0.082790 0.197420 -3.660929 -1.604940 -7.358620 7.691177 0.229058 18.014635 -2.545772 1.671693 17.147757 2.657158 -0.868167 -14.677360 -8.259006 4.596295 71.438943 -1.292090 -0.262280 8.623160 -1.550094 -2.740846 6.655648 -8.814856 22.585502 -4.636044 -39.837782 -16.971920 2.437079 -3.370682 3.333534 0.346400 -0.008350 0.166850 0.050470 -2.856355 4.538031 8.394083 4.120818 -17.875094 -3.180127 46.587666 32.323554 10.353403 2.266783 -1.842647 -0.033720 0.057410 0.080700 -0.019210 
0.595230 18.667450 -7.491380 1.141466 3.244785 -8.400541 -15.117118 14.003412 2.922645 -1.131545 -3.117066 -20.280794 21.657006 -1.790627 34.200285 0.175715 5.360322 2.533643 0.070670 -0.069860 0.062980 18.196122 -11.574343 2.536870 -1.376182 2.527805 -18.500530 -24.881776 3.480494 25.737866 -0.436882 -4.069057 2.810872 -0.104900 0.092430 0.197150 -3.616035 -1.686052 -7.369806 7.378058 0.422867 18.638322 -2.016072 1.833182 17.066242 2.348189 -1.313514 -14.705948 -9.363764 5.395409 70.930786 0.103010 -0.671420 7.786550 -1.782115 -2.772983 6.802005 -9.655190 23.506577 -5.084035 -39.868238 -18.789332 3.051947 -3.353761 3.357219 0.350050 -0.018760 0.175900 0.060200 -2.032760 5.041357 8.282676 4.095960 -17.267526 -3.312528 44.701063 31.217475 9.427666 2.289580 -1.782185 -0.023720 0.069930 0.082130 -0.002180 
0.605490 18.663490 -7.479160 0.838764 2.901809 -9.004613 -15.089508 14.034237 2.897653 -0.934615 -2.997940 -19.782497 20.996669 -1.535256 35.414956 0.200991 5.519632 2.476584 0.084600 -0.052470 0.076120 18.212945 -11.610250 2.548589 -1.092347 2.544496 -17.887700 -24.651901 3.510966 26.655983 -0.467580 -4.173618 2.773161 -0.097740 0.084520 0.207600 -3.671808 -1.651945 -7.371757 8.188814 0.240670 19.402908 -2.113607 1.776655 16.988884 2.447649 -1.353196 -14.510014 -9.311203 5.426911 70.741469 -0.313430 -0.371060 7.303860 -3.306904 -3.084373 6.703495 -10.360812 23.877044 -5.403507 -38.773233 -19.217026 2.982733 -3.373380 3.346846 0.350280 -0.018840 0.186670 0.061640 -0.742250 5.302399 8.077639 4.469822 -16.690632 -3.537786 42.778166 31.780596 9.191028 2.311858 -1.752708 -0.014240 0.066480 0.075510 -0.002530 
0.603660 18.668750 -7.472400 0.784105 2.893946 -9.310322 -15.107169 14.076943 2.950786 -1.294058 -3.107904 -19.566412 20.773277 -1.492706 36.347870 0.227695 5.664574 2.428453 0.079100 -0.058820 0.074530 18.188744 -11.593274 2.516022 -1.154723 2.396118 -17.301410 -24.231291 3.363328 26.883048 -0.465278 -4.184048 2.774576 -0.101580 0.084530 0.210160 -3.613075 -1.793264 -7.392759 8.090450 0.081522 20.160747 -1.789940 1.576823 16.694936 2.430168 -1.561951 -14.435455 -9.930426 5.817113 70.361413 -0.874250 -0.006530 7.301740 -4.627683 -3.338336 6.652673 -11.325984 23.990118 -5.781987 -39.369089 -18.815920 2.738713 -3.396350 3.328661 0.350710 -0.014440 0.185760 0.058850 0.601336 5.695597 8.036224 6.102941 -16.556239 -4.289346 42.567436 33.571306 9.666825 2.324290 -1.724137 -0.015550 0.065380 0.079780 -0.005070 
0.592450 18.662560 -7.454440 1.082848 2.839837 -9.451396 -15.125962 14.108787 2.976570 -1.628382 -3.094449 -19.139846 20.118528 -1.235106 36.651033 0.236807 5.682745 2.425709 0.069990 -0.071340 0.073750 18.162053 -11.599539 2.495530 -1.255033 2.287598 -16.734750 -24.250494 3.362034 26.973393 -0.471453 -4.217812 2.766430 -0.111020 0.084170 0.211150 -3.546282 -1.867949 -7.399883 7.712435 0.368006 20.471582 -1.634983 1.834785 16.409427 2.432333 -1.376699 -14.454919 -9.688347 5.791005 70.297555 -0.945330 0.242990 7.718810 -5.514197 -3.632474 6.542156 -12.024489 22.977428 -5.942806 -41.056226 -18.819862 2.875652 -3.414476 3.323226 0.350900 -0.011890 0.185380 0.055980 1.443601 5.879294 8.247598 8.265627 -17.806392 -5.254046 45.894375 35.418066 10.881966 2.325089 -1.739286 -0.016790 0.059790 0.081280 -0.007740 
0.590730 18.650800 -7.442070 1.104887 2.345277 -9.483981 -15.124771 14.119899 2.955888 -1.941415 -2.931921 -18.515774 19.937714 -1.127841 36.613758 0.251020 5.685541 2.437701 0.060050 -0.076850 0.036550 18.167943 -11.578046 2.521959 -0.802228 2.315671 -16.411229 -24.647342 3.534883 26.951009 -0.474545 -4.260805 2.765436 -0.110470 0.113750 0.196090 -3.542354 -1.910682 -7.383914 7.650892 0.602895 20.357399 -1.306064 2.012719 16.149938 2.036525 -1.787644 -14.381145 -11.052844 6.328995 70.079358 0.371410 -0.941730 8.166940 -4.734142 -2.930037 6.278310 -13.766195 20.568317 -6.143373 -45.089679 -17.959400 2.955955 -3.415217 3.326721 0.340590 -0.011510 0.164820 0.070660 1.415747 5.526968 8.341657 11.131117 -18.164779 -6.309690 51.013391 38.632207 13.403255 2.318492 -1.774014 -0.024040 0.076310 0.088220 0.011800 
